<?xml version="1.0" encoding="UTF-8" standalone="no"?>
<!-- Created with Inkscape (http://www.inkscape.org/) -->

<svg
   width="800"
   height="800"
   viewBox="0 0 211.66667 211.66667"
   version="1.1"
   id="svg5"
   xml:space="preserve"
   inkscape:version="1.2.2 (b0a8486541, 2022-12-01)"
   sodipodi:docname="icon.svg"
   xmlns:inkscape="http://www.inkscape.org/namespaces/inkscape"
   xmlns:sodipodi="http://sodipodi.sourceforge.net/DTD/sodipodi-0.dtd"
   xmlns="http://www.w3.org/2000/svg"
   xmlns:svg="http://www.w3.org/2000/svg"><sodipodi:namedview
     id="namedview7"
     pagecolor="#ffffff"
     bordercolor="#666666"
     borderopacity="1.0"
     inkscape:showpageshadow="2"
     inkscape:pageopacity="0.0"
     inkscape:pagecheckerboard="0"
     inkscape:deskcolor="#d1d1d1"
     inkscape:document-units="mm"
     showgrid="false"
     inkscape:zoom="0.5"
     inkscape:cx="-414"
     inkscape:cy="543"
     inkscape:window-width="1920"
     inkscape:window-height="1012"
     inkscape:window-x="0"
     inkscape:window-y="40"
     inkscape:window-maximized="1"
     inkscape:current-layer="layer2" /><defs
     id="defs2" /><g
     inkscape:groupmode="layer"
     id="layer2"
     inkscape:label="Layer 2"
     style="display:inline;fill:#ffd9bf;fill-opacity:1"><rect
       style="fill:#fff3e7;fill-opacity:1;stroke-width:0.264583"
       id="rect6122"
       width="211.0834"
       height="211.04912"
       x="0.9008171"
       y="0.4367789" /></g><g
     inkscape:label="Layer 1"
     inkscape:groupmode="layer"
     id="layer1"
     style="display:inline"><path
       style="fill:#000000;stroke-width:0.249396"
       d="M 0.04160462,152.7775 V 93.676417 L 15.016871,93.844856 c 8.236392,0.09262 15.506456,0.23408 16.155694,0.314286 l 1.180416,0.145833 -2.074472,2.493327 c -2.494467,2.998134 -4.581961,6.225738 -6.387445,9.876088 l -1.338924,2.70701 -1.00939,2.99334 -1.00939,2.99333 -0.512249,2.54373 c -1.376115,6.83349 -1.371225,13.24689 0.01534,20.01624 l 0.504041,2.46092 1.09398,3.20172 c 1.835273,5.3713 4.19931,9.82867 7.53821,14.21327 l 1.541159,2.02383 2.545772,2.55074 c 7.777762,7.79292 16.729267,12.3471 28.452371,14.47545 l 2.401104,0.43593 5.434061,-0.0119 5.434062,-0.0119 2.619339,-0.41008 c 1.440631,-0.22554 3.772229,-0.69309 5.181312,-1.039 l 2.561987,-0.62895 2.90659,-1.12755 c 6.658859,-2.58322 11.806911,-5.72876 16.327401,-9.97632 l 1.28894,-1.21113 0.16575,3.03123 c 0.0911,1.66717 0.23965,12.6934 0.32997,24.50272 l 0.16423,21.47149 H 53.284198 0.04166747 Z m 106.91247538,45.25843 5.2e-4,-13.84266 0.26715,-11.4155 0.26715,-11.41551 2.53577,-2.98086 c 1.39466,-1.63946 3.20995,-3.97251 4.03397,-5.18454 4.01898,-5.91142 6.84765,-13.17689 7.92104,-20.34529 l 0.39157,-2.61554 v -4.24343 -4.24345 l -0.39165,-2.61554 c -0.76217,-5.08997 -2.55648,-10.69828 -4.84654,-15.14834 -1.28299,-2.49309 -3.27258,-5.687046 -4.42556,-7.10447 l -0.77873,-0.957352 0.35586,-0.232631 c 0.19571,-0.12795 0.77784,-0.449831 1.29359,-0.7153 l 0.93774,-0.482667 25.60071,-0.0057 25.60072,-0.0057 16.80768,-0.356862 c 9.24422,-0.196281 19.62266,-0.359635 23.06318,-0.363011 l 6.2555,-0.0057 v 59.062023 59.062 h -52.44507 -52.44503 l 5.4e-4,-13.84265 z M 63.294363,176.54921 C 57.886181,175.78153 52.89838,174.33007 48.189938,172.15382 33.34064,165.29045 23.112063,152.09249 20.234092,136.08235 l -0.508729,-2.83005 -0.143576,-3.69138 -0.143588,-3.69138 0.298062,-2.707 c 0.163936,-1.48886 0.526275,-3.81442 0.805193,-5.16792 l 0.507146,-2.46092 1.037796,-3.04857 1.037809,-3.04856 1.579455,-3.10373 1.57947,-3.10374 1.428013,-2.069 c 0.78541,-1.13798 2.282854,-3.131313 3.327651,-4.429662 l 1.899613,-2.360633 33.026853,0.09011 33.026852,0.08999 1.250178,0.615327 1.25017,0.61534 1.43745,1.399608 1.43745,1.399598 0.63646,1.222888 0.63645,1.222884 0.08,30.67709 0.0799,30.67709 -0.49748,0.54162 c -0.7065,0.76916 -6.503142,5.1386 -8.459015,6.37628 -0.903571,0.5718 -3.121431,1.73945 -4.928574,2.59479 l -3.285709,1.55517 -3.032971,0.98474 -3.032958,0.98473 -2.653841,0.4973 c -1.459624,0.27351 -3.831705,0.61472 -5.271294,0.75825 l -2.617427,0.26096 -3.195753,-0.0265 -3.195752,-0.0264 z m 44.375347,-45.72836 0.0842,-29.78333 0.4647,-0.87295 c 0.25557,-0.480104 0.62802,-1.085064 0.82762,-1.34434 l 0.36293,-0.47141 1.31888,1.82492 c 4.76723,6.59636 7.81407,14.46023 8.85682,22.8593 l 0.25888,2.08532 v 3.33515 3.33515 l -0.25888,2.08532 c -1.16889,9.41506 -4.97901,18.39053 -10.68353,25.1671 l -1.31583,1.56309 z M 0.04160462,46.751069 V 0.23973863 H 53.244882 106.44816 l -0.006,1.53807427 c -0.004,0.8459403 -0.17124,8.9023671 -0.37283,17.9031661 l -0.36651,16.365104 -0.006,24.926588 -0.006,24.926576 -0.50189,0.957865 c -0.27604,0.52683 -0.59956,1.016649 -0.71894,1.088494 l -0.21707,0.130619 -1.97534,-1.474692 C 95.811983,81.775266 87.346169,78.359363 78.866316,77.155591 l -2.686281,-0.38134 h -4.358208 -4.358194 l -2.686294,0.38134 c -5.223782,0.741543 -10.987666,2.489209 -15.549354,4.714685 -4.580665,2.234735 -8.616151,5.015271 -13.365832,9.20934 l -1.965186,1.735291 -9.408437,0.213321 c -5.174663,0.117331 -12.792121,0.218009 -16.9276942,0.223747 l -7.51923118,0.01026 z M 181.51406,92.87984 l -13.77473,-0.305252 -26.67969,-0.02521 -26.67968,-0.02521 -1.50162,-0.874146 c -1.90171,-1.107063 -3.13167,-2.304619 -4.26866,-4.156261 l -0.89778,-1.462066 -0.006,-24.992786 -0.006,-24.992788 -0.36652,-16.365092 C 107.13117,10.680237 106.9634,2.6238102 106.95993,1.7778699 l -0.006,-1.53807424 H 159.39896 211.844 V 46.751103 93.262422 l -8.27747,-0.03866 c -4.55261,-0.02122 -14.4761,-0.176014 -22.05219,-0.343894 z M 35.843865,91.566253 C 43.322272,84.968585 53.083672,80.739979 63.727251,79.487242 l 2.14173,-0.252078 h 3.42535 3.425337 l 2.141717,0.252078 c 5.047578,0.594089 9.75768,1.806428 14.341362,3.691327 l 2.965199,1.219353 2.742917,1.588728 c 1.508592,0.873804 3.68872,2.286483 4.844715,3.13929 l 2.101792,1.550552 -0.22772,0.267168 c -0.12519,0.14694 -0.76993,0.552197 -1.43262,0.900585 l -1.204918,0.633418 -32.186729,0.08475 -32.186717,0.08474 z"
       id="path223" /></g></svg>
